<mxfile host="app.diagrams.net" modified="2024-02-01T21:20:23.785Z" agent="Mozilla/5.0 (Windows NT 10.0; Win64; x64; rv:122.0) Gecko/20100101 Firefox/122.0" etag="EXyaLUJ9g3DBaYdla2UP" version="23.1.1" type="device">
  <diagram id="C5RBs43oDa-KdzZeNtuy" name="Page-1">
    <mxGraphModel dx="1509" dy="785" grid="1" gridSize="10" guides="1" tooltips="1" connect="1" arrows="1" fold="1" page="1" pageScale="1" pageWidth="827" pageHeight="1169" math="0" shadow="0">
      <root>
        <mxCell id="WIyWlLk6GJQsqaUBKTNV-0" />
        <mxCell id="WIyWlLk6GJQsqaUBKTNV-1" parent="WIyWlLk6GJQsqaUBKTNV-0" />
        <mxCell id="WIyWlLk6GJQsqaUBKTNV-2" value="" style="rounded=0;html=1;jettySize=auto;orthogonalLoop=1;fontSize=11;endArrow=block;endFill=0;endSize=8;strokeWidth=1;shadow=0;labelBackgroundColor=none;edgeStyle=orthogonalEdgeStyle;" parent="WIyWlLk6GJQsqaUBKTNV-1" source="WIyWlLk6GJQsqaUBKTNV-3" edge="1">
          <mxGeometry relative="1" as="geometry">
            <mxPoint x="220" y="170" as="targetPoint" />
          </mxGeometry>
        </mxCell>
        <mxCell id="WIyWlLk6GJQsqaUBKTNV-3" value="Начало" style="rounded=1;whiteSpace=wrap;html=1;fontSize=12;glass=0;strokeWidth=1;shadow=0;arcSize=50;" parent="WIyWlLk6GJQsqaUBKTNV-1" vertex="1">
          <mxGeometry x="160" y="80" width="120" height="40" as="geometry" />
        </mxCell>
        <mxCell id="pKIDRNXs2y8hNhaF3nF--14" style="edgeStyle=orthogonalEdgeStyle;rounded=0;orthogonalLoop=1;jettySize=auto;html=1;entryX=0;entryY=0.5;entryDx=0;entryDy=0;" edge="1" parent="WIyWlLk6GJQsqaUBKTNV-1" source="pKIDRNXs2y8hNhaF3nF--2" target="pKIDRNXs2y8hNhaF3nF--15">
          <mxGeometry relative="1" as="geometry">
            <mxPoint x="350" y="200" as="targetPoint" />
          </mxGeometry>
        </mxCell>
        <mxCell id="pKIDRNXs2y8hNhaF3nF--2" value="auto&amp;amp; c: text" style="verticalLabelPosition=middle;verticalAlign=middle;html=1;shape=hexagon;perimeter=hexagonPerimeter2;arcSize=6;size=0.27;labelPosition=center;align=center;" vertex="1" parent="WIyWlLk6GJQsqaUBKTNV-1">
          <mxGeometry x="170" y="170" width="100" height="60" as="geometry" />
        </mxCell>
        <mxCell id="pKIDRNXs2y8hNhaF3nF--6" style="edgeStyle=orthogonalEdgeStyle;rounded=0;orthogonalLoop=1;jettySize=auto;html=1;entryX=0.5;entryY=0;entryDx=0;entryDy=0;" edge="1" parent="WIyWlLk6GJQsqaUBKTNV-1" source="pKIDRNXs2y8hNhaF3nF--3" target="pKIDRNXs2y8hNhaF3nF--5">
          <mxGeometry relative="1" as="geometry" />
        </mxCell>
        <mxCell id="pKIDRNXs2y8hNhaF3nF--3" value="&lt;div style=&quot;font-family: Consolas, &amp;quot;Courier New&amp;quot;, monospace; font-weight: normal; font-size: 11px; line-height: 136%;&quot;&gt;&lt;div style=&quot;line-height: 136%; font-size: 11px;&quot;&gt;&lt;font style=&quot;font-size: 11px;&quot;&gt;&lt;span style=&quot;font-size: 11px;&quot;&gt;char ch = isupper(c) ? &#39;A&#39; : &#39;a&#39;;&lt;/span&gt;&lt;/font&gt;&lt;/div&gt;&lt;/div&gt;" style="rounded=0;whiteSpace=wrap;html=1;fontColor=default;labelBackgroundColor=none;fontSize=11;" vertex="1" parent="WIyWlLk6GJQsqaUBKTNV-1">
          <mxGeometry x="50" y="380" width="200" height="60" as="geometry" />
        </mxCell>
        <mxCell id="pKIDRNXs2y8hNhaF3nF--12" style="edgeStyle=orthogonalEdgeStyle;rounded=0;orthogonalLoop=1;jettySize=auto;html=1;entryX=0;entryY=0.5;entryDx=0;entryDy=0;" edge="1" parent="WIyWlLk6GJQsqaUBKTNV-1" source="pKIDRNXs2y8hNhaF3nF--5" target="pKIDRNXs2y8hNhaF3nF--2">
          <mxGeometry relative="1" as="geometry">
            <Array as="points">
              <mxPoint x="20" y="510" />
              <mxPoint x="20" y="200" />
            </Array>
          </mxGeometry>
        </mxCell>
        <mxCell id="pKIDRNXs2y8hNhaF3nF--5" value="&lt;div style=&quot;font-family: Consolas, &amp;quot;Courier New&amp;quot;, monospace; font-weight: normal; font-size: 12px; line-height: 19px;&quot;&gt;&lt;div style=&quot;font-size: 12px;&quot;&gt;&lt;span style=&quot;font-size: 12px;&quot;&gt;&lt;span style=&quot;font-size: 12px;&quot;&gt;result&lt;/span&gt;&lt;span style=&quot;font-size: 12px;&quot;&gt; &lt;/span&gt;&lt;span style=&quot;font-size: 12px;&quot;&gt;+=&lt;/span&gt;&lt;span style=&quot;font-size: 12px;&quot;&gt; (&lt;/span&gt;&lt;span style=&quot;font-size: 12px;&quot;&gt;c&lt;/span&gt;&lt;span style=&quot;font-size: 12px;&quot;&gt; &lt;/span&gt;&lt;span style=&quot;font-size: 12px;&quot;&gt;-&lt;/span&gt;&lt;span style=&quot;font-size: 12px;&quot;&gt; &lt;/span&gt;&lt;span style=&quot;font-size: 12px;&quot;&gt;ch&lt;/span&gt;&lt;span style=&quot;font-size: 12px;&quot;&gt; &lt;/span&gt;&lt;span style=&quot;font-size: 12px;&quot;&gt;+&lt;/span&gt;&lt;span style=&quot;font-size: 12px;&quot;&gt; &lt;/span&gt;&lt;span style=&quot;font-size: 12px;&quot;&gt;shift&lt;/span&gt;&lt;span style=&quot;font-size: 12px;&quot;&gt;) &lt;/span&gt;&lt;span style=&quot;font-size: 12px;&quot;&gt;%&lt;/span&gt;&lt;span style=&quot;font-size: 12px;&quot;&gt; &lt;/span&gt;&lt;span style=&quot;font-size: 12px;&quot;&gt;26&lt;/span&gt;&lt;span style=&quot;font-size: 12px;&quot;&gt; &lt;/span&gt;&lt;span style=&quot;font-size: 12px;&quot;&gt;+&lt;/span&gt;&lt;span style=&quot;font-size: 12px;&quot;&gt; &lt;/span&gt;&lt;span style=&quot;font-size: 12px;&quot;&gt;ch&lt;/span&gt;&lt;span style=&quot;font-size: 12px;&quot;&gt;;&lt;/span&gt;&lt;/span&gt;&lt;/div&gt;&lt;/div&gt;" style="rounded=0;whiteSpace=wrap;html=1;fontColor=#000000;labelBackgroundColor=none;fontSize=12;" vertex="1" parent="WIyWlLk6GJQsqaUBKTNV-1">
          <mxGeometry x="50" y="480" width="200" height="60" as="geometry" />
        </mxCell>
        <mxCell id="pKIDRNXs2y8hNhaF3nF--9" style="edgeStyle=orthogonalEdgeStyle;rounded=0;orthogonalLoop=1;jettySize=auto;html=1;entryX=0.5;entryY=0;entryDx=0;entryDy=0;" edge="1" parent="WIyWlLk6GJQsqaUBKTNV-1" source="pKIDRNXs2y8hNhaF3nF--7" target="pKIDRNXs2y8hNhaF3nF--3">
          <mxGeometry relative="1" as="geometry">
            <Array as="points">
              <mxPoint x="110" y="310" />
            </Array>
          </mxGeometry>
        </mxCell>
        <mxCell id="pKIDRNXs2y8hNhaF3nF--11" style="edgeStyle=orthogonalEdgeStyle;rounded=0;orthogonalLoop=1;jettySize=auto;html=1;entryX=0.5;entryY=0;entryDx=0;entryDy=0;" edge="1" parent="WIyWlLk6GJQsqaUBKTNV-1" source="pKIDRNXs2y8hNhaF3nF--7" target="pKIDRNXs2y8hNhaF3nF--10">
          <mxGeometry relative="1" as="geometry">
            <Array as="points">
              <mxPoint x="320" y="310" />
            </Array>
          </mxGeometry>
        </mxCell>
        <mxCell id="pKIDRNXs2y8hNhaF3nF--7" value="isalpha(c)" style="strokeWidth=2;html=1;shape=mxgraph.flowchart.decision;whiteSpace=wrap;" vertex="1" parent="WIyWlLk6GJQsqaUBKTNV-1">
          <mxGeometry x="170" y="260" width="100" height="100" as="geometry" />
        </mxCell>
        <mxCell id="pKIDRNXs2y8hNhaF3nF--8" style="edgeStyle=orthogonalEdgeStyle;rounded=0;orthogonalLoop=1;jettySize=auto;html=1;entryX=0.5;entryY=0;entryDx=0;entryDy=0;entryPerimeter=0;" edge="1" parent="WIyWlLk6GJQsqaUBKTNV-1" source="pKIDRNXs2y8hNhaF3nF--2" target="pKIDRNXs2y8hNhaF3nF--7">
          <mxGeometry relative="1" as="geometry" />
        </mxCell>
        <mxCell id="pKIDRNXs2y8hNhaF3nF--13" style="edgeStyle=orthogonalEdgeStyle;rounded=0;orthogonalLoop=1;jettySize=auto;html=1;entryX=1;entryY=0.75;entryDx=0;entryDy=0;" edge="1" parent="WIyWlLk6GJQsqaUBKTNV-1" source="pKIDRNXs2y8hNhaF3nF--10" target="pKIDRNXs2y8hNhaF3nF--2">
          <mxGeometry relative="1" as="geometry">
            <Array as="points">
              <mxPoint x="350" y="250" />
              <mxPoint x="259" y="250" />
            </Array>
          </mxGeometry>
        </mxCell>
        <mxCell id="pKIDRNXs2y8hNhaF3nF--10" value="result += c;" style="rounded=0;whiteSpace=wrap;html=1;" vertex="1" parent="WIyWlLk6GJQsqaUBKTNV-1">
          <mxGeometry x="260" y="380" width="120" height="60" as="geometry" />
        </mxCell>
        <mxCell id="pKIDRNXs2y8hNhaF3nF--15" value="return result;" style="rounded=0;whiteSpace=wrap;html=1;" vertex="1" parent="WIyWlLk6GJQsqaUBKTNV-1">
          <mxGeometry x="354" y="170" width="120" height="60" as="geometry" />
        </mxCell>
      </root>
    </mxGraphModel>
  </diagram>
</mxfile>
